<svg id="Layer_1" data-name="Layer 1" xmlns="http://www.w3.org/2000/svg" width="784" height="247" viewBox="0 0 784 247"><defs><style>.cls-1{fill:#ff5d0d;}.cls-2{fill:none;}</style></defs><title>swiggy-logo-freelogovectors.net_</title><path class="cls-1" d="M109.46,505.38A3.46,3.46,0,0,1,109,505a556,556,0,0,1-34.25-48c-4.8-8.05-7.91-14.32-7.31-15.94,1.56-4.21,29.46-6.52,38.05-2.7,2.61,1.16,2.54,2.7,2.54,3.59,0,3.86-.19,14.22-.19,14.22a3.88,3.88,0,0,0,7.76,0l0-25.8h0c0-2.24-2.45-2.8-2.91-2.89-4.48,0-13.59-.05-23.36-.05-21.58,0-26.4.89-30.06-1.51C51.3,420.67,38.31,385.68,38,366c-.43-27.78,16-51.83,39.2-63.75a71.44,71.44,0,0,1,103.08,55.69s0,.07,0,.1c.73,8.61-46.73,10.44-56.12,7.93a2.61,2.61,0,0,1-1.81-2.49c0-6.55,0-25,0-25a3.88,3.88,0,0,0-3.89-3.87h0a3.88,3.88,0,0,0-3.87,3.89l.07,33.94a2.92,2.92,0,0,0,2.36,2.82h29.45c15.72,0,22.32,1.82,26.71,5.16,2.93,2.23,4.06,6.49,3.07,12C167.4,441.75,111.56,502.83,109.46,505.38ZM260.92,390.32c14.09,6,22.82,12.74,22.82,27.45,0,15-11.38,24.72-29,24.72-14.26,0-25.72-6.46-31.42-17.73l-.93-1.82,16.78-9.72,1.1,1.8c3.78,6.17,8,8.8,14.13,8.8,5.28,0,8.83-2.34,8.83-5.82,0-3.86-2.57-5.31-10.51-8.79l-4-1.72c-10.77-4.59-20.74-11-20.74-26.41,0-13.88,10.63-23.57,25.87-23.57,11.53,0,19.45,4.46,24.89,14.05l1,1.78-16.26,10.45-1.12-2c-2.71-4.86-5.27-5.83-8.52-5.83-3.4,0-5.59,1.87-5.59,4.78,0,3.34,1.61,4.81,8.64,7.85Zm118.75,2.84,11.84-33h20.33l-30.13,83.71H377.2l-18.28-39.2c-.85-1.8-1.72-4-2.48-6.07-.77,2.05-1.67,4.28-2.52,6.08l-19,39.19h-4.48l-30.61-83.71h21.71l12,33c.76,2.11,1.55,4.68,2.23,7.06a64.91,64.91,0,0,1,2.81-7.26l15.73-33.51h4.35l16,33.52a64.73,64.73,0,0,1,2.81,7.25C378.12,397.84,378.91,395.27,379.67,393.16Zm55.87,48.29v-83h20.52v83Zm87.78-27.89V395h38.1v37.21l-.79.65c-4.35,3.58-15.91,9.63-31.56,9.63-26.41,0-44.84-17.49-44.84-42.55,0-24.58,17.78-42.43,42.3-42.43,13.47,0,23.35,3.8,30.19,11.62l1.34,1.52-14,13.85-1.52-1.57c-3.9-4-7.95-6.52-16-6.52-12.56,0-21.33,9.68-21.33,23.54,0,14.43,9.37,23.76,23.87,23.76a39.22,39.22,0,0,0,13.22-2.15v-8Zm104,0V395h38.1v37.21l-.79.65c-4.36,3.58-15.91,9.63-31.56,9.63-26.41,0-44.85-17.49-44.85-42.55,0-24.58,17.8-42.43,42.3-42.43,13.48,0,23.36,3.8,30.2,11.62l1.34,1.52-14,13.85-1.53-1.57c-3.9-4-7.95-6.52-16-6.52-12.55,0-21.32,9.68-21.32,23.54,0,14.43,9.37,23.76,23.87,23.76a39.22,39.22,0,0,0,13.22-2.15v-8Zm113.27-55.13H762l-29.43,55.24v27.78H711.94V414.86l-31.35-56.43h22.88L718,384.9a98.13,98.13,0,0,1,4.41,9.78,93.83,93.83,0,0,1,4.28-9.75Z" transform="translate(-8 -276.5)"/><rect class="cls-2" width="784" height="247"/></svg>